<svg version="1.2" baseProfile="tiny-ps" xmlns="http://www.w3.org/2000/svg" viewBox="0 0 26 26" width="26" height="26">
	<title>time-icon (3)-svg</title>
	<style>
		tspan { white-space:pre }
		.shp0 { fill: #ffffff } 
	</style>
	<path id="Layer" fill-rule="evenodd" class="shp0" d="M-0.07 12.75C-0.07 5.72 5.65 0.2 12.68 0.2C19.71 0.2 25.43 5.72 25.43 12.75C25.43 19.77 19.71 25.49 12.68 25.49C5.65 25.49 -0.07 19.77 -0.07 12.75ZM12.68 1.48C6.47 1.48 1.41 6.53 1.41 12.75C1.41 18.96 6.47 24.14 12.68 24.14C18.89 24.14 23.95 18.96 23.95 12.75C23.95 6.53 18.89 1.48 12.68 1.48ZM18.42 19.23C18.38 19.23 18.37 19.23 18.37 19.22C18.34 19.23 18.24 19.27 17.92 19.34L11.66 13.29C11.62 13.26 11.59 13.22 11.56 13.18C11.53 13.14 11.5 13.09 11.48 13.04C11.46 13 11.44 12.95 11.43 12.9C11.42 12.85 11.42 12.8 11.42 12.75L11.42 7.2C11.42 6.59 11.75 6.26 12.16 6.26C12.57 6.26 12.9 6.59 12.9 7.2L12.9 12.42L18.92 17.94C19.03 18.04 19.11 18.18 19.14 18.32C19.18 18.47 19.17 18.62 19.11 18.76C19.06 18.9 18.96 19.02 18.84 19.1C18.72 19.18 18.57 19.23 18.42 19.23Z" />
</svg>