<svg xmlns="http://www.w3.org/2000/svg" width="27" height="26">
    <path fill-rule="evenodd" fill="#FFF" d="M19.424 25.494a7.013 7.013 0 0 1-7.005-7.005 7.012 7.012 0 0 1 7.005-7.005 7.012 7.012 0 0 1 7.005 7.005 7.013 7.013 0 0 1-7.005 7.005zm0-12.53a5.531 5.531 0 0 0-5.526 5.525c0 3.047 2.479 5.651 5.526 5.651 3.046 0 5.525-2.604 5.525-5.651a5.531 5.531 0 0 0-5.525-5.525zm3.107 8.632c-.144.145-.334.217.269.217-.981 0-1.171-.072-1.315-.217l-2.062-2.061-2.061 2.061c-.144.145-.082.217-.524.217a.734.734 0 0 1-.522-.217 3.989 3.989 0 0 1 0-1.047l2.061-2.06-2.061-2.061a3.989 3.989 0 0 1 0-1.047c.288.539 1.424.549 1.046 0l2.061 2.061 2.062-2.061c.289.549.757.539 1.046 0a.74.74 0 0 1 0 1.047l-2.061 2.061 2.061 2.06a.74.74 0 0 1 0 1.047zm-1.019-11.22c-.408 0-.739.074-.739-.74V7.499c-1.821 1.432-5.171 2.355-9.18 2.355-4.01 0-7.359-.923-9.181-2.355v1.615c0 1.625 3.771 3.437 9.181 3.437.507 0 .739.331.739.74 0 .408-.232 1.019-.739 1.019-4.01 0-7.359-1.203-9.181-2.634v2.137c0 1.382 2.93 3.07 8.348 3.387-.276.027.032.379.004.787-.025.391-.351.691-.494.691-.17 0-.276-.001-.293-.002-3.314-.221-6.004-1.08-7.565-2.301v2.137c0 1.475 3.283 3.199 8.169 3.414a.74.74 0 0 1 .707.772c-.018 1.262-.346.708-.74.708l-.033-.001C4.962 23.16.933 21.103.933 18.512V4.914c0-.055.007-.109.018-.161C1.149 2.3 5.65.2 11.593.2 17.56.2 22.76 2.47 22.237 4.787c.01.049.015.099.015.15v4.699c0 .814-.331.74-.74.74zm-9.919-8.898c-5.255 0-9.181 1.826-9.181 3.459 0 1.626 3.771 3.437 9.181 3.437 5.607 0 9.18-1.811 9.18-3.437 0-1.633-3.926-3.459-9.18-3.459z"/>
</svg>
