<?xml version="1.0" encoding="utf-8"?>
<!-- Generator: Adobe Illustrator 24.2.3, SVG Export Plug-In . SVG Version: 6.00 Build 0)  -->
<svg version="1.1" id="Layer_1" xmlns="http://www.w3.org/2000/svg" xmlns:xlink="http://www.w3.org/1999/xlink" x="0px" y="0px"
	 viewBox="0 0 52 52" style="enable-background:new 0 0 52 52;" xml:space="preserve">
<style type="text/css">
	.st0{fill:#999999;}
</style>
<g>
	<g>
		<path class="st0" d="M29,51.5h-6c-1.4,0-2.5-1.1-2.5-2.5V28.1L1.1,4.6C0.5,3.8,0.3,2.8,0.7,1.9C1.2,1.1,2,0.5,3,0.5h46
			c1,0,1.8,0.6,2.3,1.4c0.4,0.9,0.3,1.9-0.3,2.7L31.5,28.1V49C31.5,50.4,30.4,51.5,29,51.5z M25.5,46.5h1V27.2
			c0-0.6,0.2-1.1,0.6-1.6L43.7,5.5H8.3l16.6,20.1c0.4,0.4,0.6,1,0.6,1.6V46.5z"/>
	</g>
</g>
</svg>
