<svg version="1.2" baseProfile="tiny-ps" xmlns="http://www.w3.org/2000/svg" viewBox="0 0 27 27" width="26" height="26">
	<title>info-icon (1)-svg</title>
	<style>
		tspan { white-space:pre }
		.shp0 { fill: #ffffff } 
	</style>
	<path id="Layer" fill-rule="evenodd" class="shp0" d="M13.17 26.49C5.87 26.49 -0.07 20.55 -0.07 13.24C-0.07 5.94 5.87 0.2 13.17 0.2C20.48 0.2 26.42 5.94 26.42 13.24C26.42 20.55 20.48 26.49 13.17 26.49ZM1.53 13.24C1.53 19.66 6.75 24.88 13.17 24.88C19.59 24.88 24.82 19.66 24.82 13.24C24.82 6.82 19.59 1.6 13.17 1.6C6.76 1.6 1.53 6.82 1.53 13.24ZM9.78 21.96C9.57 21.96 9.36 21.88 9.21 21.73C9.06 21.58 8.98 21.37 8.98 21.16C8.98 20.95 9.06 20.75 9.21 20.6C9.36 20.45 9.57 20.36 9.78 20.36L12.37 20.36L12.37 11.78L10.91 11.78C10.69 11.79 10.48 11.71 10.33 11.56C10.17 11.41 10.08 11.2 10.08 10.98C10.08 10.76 10.17 10.55 10.33 10.4C10.48 10.25 10.69 10.17 10.91 10.18L13.17 10.18C13.28 10.18 13.38 10.2 13.48 10.24C13.58 10.28 13.67 10.34 13.74 10.41C13.81 10.49 13.87 10.58 13.91 10.67C13.95 10.77 13.98 10.87 13.97 10.98L13.97 20.36L16.57 20.36C17.1 20.36 17.37 20.72 17.37 21.16C17.37 21.61 17.1 21.96 16.57 21.96L9.78 21.96ZM12.61 8.43C11.83 8.43 11.19 7.8 11.19 7.2C11.19 6.24 11.83 5.61 12.61 5.61C13.39 5.61 14.22 6.24 14.22 7.2C14.22 7.8 13.39 8.43 12.61 8.43Z" />
</svg>