<svg xmlns="http://www.w3.org/2000/svg" width="27" height="26">
    <path fill-rule="evenodd" fill="#FFF" d="M19.424 25.494c-3.863 0-7.006-3.143-7.006-7.005 0-3.863 3.143-7.005 7.006-7.005a7.012 7.012 0 0 1 7.005 7.005 7.013 7.013 0 0 1-7.005 7.005zm0-12.53a5.53 5.53 0 0 0-5.525 5.525c0 3.047 2.478 5.651 5.525 5.651s5.526-2.604 5.526-5.651a5.531 5.531 0 0 0-5.526-5.525zm2.089 6.265h-2.828v-4.395c0-.409.465.106.739.106.409 0 .74-.515.74-.106v2.915h1.349c.408 0 .739 1.051.739.74a.74.74 0 0 1-.739.74zm0-8.876c-.409 0-.74-.133-.74-.74V7.476c-1.822 1.432-5.171 2.355-9.18 2.355-4.01 0-7.36-.923-9.181-2.355V9.91c0 .807 3.771 2.618 9.181 2.618.607 0 .739.331.739.74S12.2 14.8 11.593 14.8c-4.01 0-7.36-.96-9.181-3.147v2.137c0 1.383 2.93 3.071 8.348 3.387-.277.027.032.379.004.787-.026.391-.351.691-.504.691-.15 0-.266 0-.284-.002-3.313-.221-6.004-1.079-7.564-2.3v2.136c0 1.475 3.283 3.199 8.169 3.415a.738.738 0 0 1 .706.771c-.017 1.055-.345.708-.738.708l-.034-.001C4.963 23.138.933 21.8.933 18.489V4.914c0-.051.005-.102.015-.15C1.11 2.37 5.626.2 11.593.2c5.966 0 11.147 2.17 10.644 4.564.01.048.015.099.015.15v4.699c0 .607-.331.74-.739.74zm-9.92-8.875c-5.41 0-9.181 1.811-9.181 3.436 0 1.626 3.771 3.437 9.181 3.437 5.607 0 9.18-1.811 9.18-3.437 0-1.625-3.573-3.436-9.18-3.436z"/>
</svg>
