<svg xmlns="http://www.w3.org/2000/svg" width="27" height="26">
    <path fill-rule="evenodd" fill="#FFF" d="m25.968 18.823-.733.425c.015.163.023.323.023.482 0 .16-.007.78-.022.483l.734.425a.769.769 0 0 1 .28 1.048l-1.618 2.816a.765.765 0 0 1-1.045.281l-.733-.426c-.255.177-.531.336-.524.475v.858c0 .424-.639.768-1.062.768H18.3c-.692 0-1.034-.344-1.034-.768v-.857c.134-.123-.55-.281-.837-.478l-.744.429a.764.764 0 0 1-1.044-.282l-1.421-2.815c-.299-.177-.327-.386-.274-.583a.761.761 0 0 1 .357-.466l1.057-.426c-.15.288-.22-.322-.22-.482 0-.159.07-.319.22-.482l-1.057-.425a.772.772 0 0 1-.356-.467c-.053-.196-.025-.406.293-.582l1.404-2.816a.764.764 0 0 1 1.044-.281l.741.428c.288-.197.971-.354.837-.478v-.857c0-.424.342-.57 1.034-.57h2.968c.423 0 1.062.146 1.062.57v.859c-.008.138.269.297.523.475l.73-.426a.766.766 0 0 1 1.047.281l1.618 2.815a.77.77 0 0 1-.28 1.049zm-2.239.907c0-.239-.025-.484-.073-.751-.058-.319.09-.641.604-.803l.281-.299-.853-1.484-.508.297a.765.765 0 0 1-.883-.081c-.36-.31-.808-.219-1.097-.752-.498-.112-.697-.399-.697-.72v-.599h-1.708v.599a.769.769 0 0 1-.498.72c-.496.563-.962.452-1.311.752a.762.762 0 0 1-.879.082l-.52-.3-.856 1.486.515.299c.28.162.429.484.37.803a4.12 4.12 0 0 0-.072.751c0 .243.023.489.071.752a.768.768 0 0 1-.37.803l-.516.299.855 2.126.524-.941a.762.762 0 0 1 .878.082c.348.3.814.567 1.312.753.298.112.497.696.497.72v.598h1.708v-.598c0-.024.199-.608.597-.72a5.442 5.442 0 0 0 1.197-.753.764.764 0 0 1 .881-.081l.512.91.853-2.096-.273-.299c-.523-.162-.671-.484-.613-.803.047-.263.072-.509.072-.752zm-4.093 2.935c-1.406 0-2.925-1.316-2.925-2.935s1.519-2.935 2.925-2.935a2.933 2.933 0 0 1 2.924 2.935 2.933 2.933 0 0 1-2.924 2.935zm0-4.334a1.398 1.398 0 0 0 0 2.798c.768 0 1.654-.628 1.654-1.399 0-.772-.886-1.399-1.654-1.399zm1.632-6.503c-.423 0-.765-.343-.765-.228V7.759c-1.882 1.485-5.345 2.444-9.363 2.444-4.27 0-7.732-.959-9.615-2.444v1.676c0 1.687 3.898 3.765 9.615 3.765.402 0 1.55-.216 1.442-.251.618-.035.785.292.815.715.028 1.206-.291.789-.712.818-.546.037-1.109.056-1.545.056-4.27 0-7.732-.959-9.615-1.598v1.372c0 1.687 3.898 3.566 9.615 3.566.297 0 .639.344.639.768 0 1.054-.342.768-.639.768-4.27 0-7.732-.958-9.615-2.444v2.218c0 1.687 3.898 3.567 9.615 3.567.297 0 .639 1.235.639.768 0 .424-.342.768-.639.768C4.733 24.291.3 22.97.3 19.188V5.1c0 .37-.1-.106-.18-.156C.18 2.114 4.847.2 11.14.2c6.042 0 10.709 1.914 11.03 4.744.11.05.16.526.16.156v6.5c0-.115-.639.228-1.062.228zM11.14 1.534c-5.717 0-9.615 1.879-9.615 3.566 0 1.687 3.898 3.567 9.615 3.567 5.466 0 9.363-1.88 9.363-3.567 0-1.687-3.897-3.566-9.363-3.566z"/>
</svg>
