<svg version="1.2" baseProfile="tiny-ps" xmlns="http://www.w3.org/2000/svg" viewBox="0 0 19 31" width="19" height="31">
	<title>pause (1)-svg</title>
	<style>
		tspan { white-space:pre }
		.shp0 { fill: #2e2e2e } 
	</style>
	<g id="Layer">
		<path id="Layer" fill-rule="evenodd" class="shp0" d="M17.6 31L11.26 31C11.18 31 11.1 30.98 11.02 30.95C10.94 30.92 10.87 30.87 10.82 30.81C10.76 30.76 10.71 30.69 10.68 30.61C10.65 30.53 10.63 30.45 10.63 30.37L10.63 1.21C10.63 0.86 10.91 0.58 11.26 0.58L17.6 0.58C17.95 0.58 18.23 0.86 18.23 1.21L18.23 30.37C18.23 30.72 17.95 31 17.6 31ZM11.9 1.85L11.9 29.73L16.97 29.73L16.97 1.85L11.9 1.85ZM7.46 31L1.12 31C1.04 31 0.96 30.98 0.88 30.95C0.8 30.92 0.73 30.87 0.68 30.81C0.62 30.76 0.57 30.69 0.54 30.61C0.51 30.53 0.49 30.45 0.49 30.37L0.49 1.21C0.49 0.86 0.77 0.58 1.12 0.58L7.46 0.58C7.81 0.58 8.95 0.86 8.95 1.21L8.95 30.37C8.95 30.72 7.81 31 7.46 31ZM1.76 1.85L1.76 29.73L6.83 29.73L6.83 1.85L1.76 1.85Z" />
	</g>
</svg>