<svg version="1.2" baseProfile="tiny-ps" xmlns="http://www.w3.org/2000/svg" viewBox="0 0 31 31" width="31" height="31">
	<title>resume-svg</title>
	<style>
		tspan { white-space:pre }
		.shp0 { fill: #2e2e2e } 
	</style>
	<g id="Layer">
		<path id="Layer" fill-rule="evenodd" class="shp0" d="M0.59 30.95C0.51 30.92 0.44 30.87 0.38 30.81C0.32 30.75 0.28 30.69 0.25 30.61C0.21 30.53 0.2 30.45 0.2 30.37L0.2 1.24C0.2 1.25 0.31 0.82 0.5 0.71C0.54 0.68 0.59 0.66 0.64 0.64C0.7 0.62 0.75 0.61 0.8 0.61C0.86 0.61 0.91 0.61 0.96 0.63C1.02 0.64 1.07 0.65 1.12 0.68L30.27 15.24C30.48 15.35 30.62 15.57 30.62 15.8C30.62 16.45 30.48 16.26 30.27 16.37L1.12 30.93C1.25 30.98 0.93 31 0.83 31C0.75 31 0.67 30.98 0.59 30.95ZM1.46 29.34L28.56 15.8L1.46 2.27L1.46 29.34Z" />
	</g>
</svg>