<svg xmlns="http://www.w3.org/2000/svg" width="28" height="27">
    <path fill-rule="evenodd" fill="#FFF" d="M21.882 4.844C21.716 2.71 17.123.2 11.52.2 4.982.2.389 2.71.223 4.844a.778.778 0 0 0-.015.153v13.805c0 2.851 4.662 5.001 11.312 5.001 5.715 0 10.377-2.15 10.377-5.001V4.997a.862.862 0 0 0-.015-.153zm-1.49 9.396c0 1.437-3.836 3.279-8.872 3.279-5.971 0-9.807-1.842-9.807-3.279v-2.39c1.853 1.456 5.26 2.395 9.807 2.395 3.611 0 7.018-.939 8.872-2.395v2.39zm0-4.995c0 1.653-3.836 3.495-8.872 3.495-5.971 0-9.807-1.842-9.807-3.495V7.603c1.853 1.977 5.26 2.395 9.807 2.395 3.611 0 7.018-.418 8.872-2.395v1.642zM11.52 1.502c5.036 0 8.872 1.842 8.872 3.495s-3.836 3.495-8.872 3.495c-5.971 0-9.807-1.842-9.807-3.495s3.836-3.495 9.807-3.495zm0 20.795c-5.971 0-9.807-1.842-9.807-3.495v-2.173c1.853 2.221 5.26 2.611 9.807 2.611 3.611 0 7.018-.39 8.872-2.611v2.173c0 1.653-3.836 3.495-8.872 3.495z"/>
</svg>
