<svg xmlns="http://www.w3.org/2000/svg" width="28" height="27">
    <path fill-rule="evenodd" fill="#FFF" d="M26.641 26.246c-.15.15-.347.225.349.225-1.087 0-1.284-.075-1.433-.225l-3.294-3.304a4.838 4.838 0 0 1-2.862.938c-2.691 0-4.881-2.195-4.881-4.894 0-2.698 2.19-4.066 4.881-4.066 3.509 0 4.88 1.368 4.88 4.066 0 1.604-.35 2.494-.935 2.87l3.295 3.303a.77.77 0 0 1 0 1.087zm-7.24-10.617c-1.847 0-2.881 1.506-2.881 3.357 0 1.852 1.034 3.357 2.881 3.357a3.356 3.356 0 0 0 3.348-3.357 3.356 3.356 0 0 0-3.348-3.357zm2.373-3.795c-.424 0-.074-.344-.074-.174V7.763c-2.578 1.486-6.046 2.445-10.198 2.445s-7.621-.959-9.507-2.445v1.676c0 1.688 3.905 4.361 9.507 4.361.798 0 1.057-.81 2.218-.844-.21-.036.139.292.168.715.029 1.269-.292.789-.713.818-.547.037-.535.056-1.673.056-4.152 0-7.621-.959-9.507-1.555v1.328c0 2.282 3.905 3.569 9.507 3.569.423 0 .766.344.766.768 0 1.135-.343.769-.766.769-4.152 0-7.621-.959-9.507-2.446v2.219c0 1.688 3.905 3.569 9.507 3.569a.767.767 0 0 1 0 1.536c-6.294 0-11.039-2.194-11.039-5.105V5.103c0 .387.006-.106.016-.156C.647 2.115 5.323.2 11.502.2c6.177 0 10.853 1.915 11.021 4.747.011.05.017.543.017.156v6.557c0-.17-.343.174-.766.174zm-10.272-10.3c-5.602 0-9.507 1.881-9.507 3.569 0 1.687 3.905 3.568 9.507 3.568 5.601 0 10.198-1.881 10.198-3.568 0-1.688-4.597-3.569-10.198-3.569z"/>
</svg>
