<svg xmlns="http://www.w3.org/2000/svg" width="21" height="20">
    <path fill-rule="evenodd" fill="#2E2E2E" d="M20.536 19.131a.796.796 0 0 1-1.136 0l-3.244-3.255c-.8.574-1.772.921-2.828.921-2.693 0-4.885-2.199-4.885-4.901 0-2.703 2.192-4.902 4.885-4.902 2.692 0 4.882 2.199 4.882 4.902 0 1.06-.345 2.036-.917 2.839l3.243 3.255a.807.807 0 0 1 0 1.141zM13.328 8.608a3.286 3.286 0 0 0-3.277 3.288 3.286 3.286 0 0 0 3.277 3.287 3.285 3.285 0 0 0 3.274-3.287 3.285 3.285 0 0 0-3.274-3.288zm2.352-3.766a.806.806 0 0 1-.804-.807V1.614H2.011v12.912h2.948c.444 0 .804.361.804.807 0 .445-.36.807-.804.807H1.207a.806.806 0 0 1-.804-.807V.807C.403.361.763 0 1.207 0H15.68c.444 0 .804.361.804.807v3.228c0 .445-.36.807-.804.807z"/>
</svg>
