<svg xmlns="http://www.w3.org/2000/svg" viewBox="0 0 50 50"><path d="M25 0C11.19 0 0 11.19 0 25s11.19 25 25 25 25-11.19 25-25S38.81 0 25 0zm12.66 35.99A15.697 15.697 0 0126.67 41h-.07c-1.07 0-1.96-.85-2-1.93-.04-1.1.83-2.03 1.93-2.07 3.14-.11 6.06-1.44 8.2-3.74 2.15-2.3 3.27-5.3 3.16-8.44-.23-6.49-5.7-11.61-12.18-11.36-3.21.11-6.15 1.47-8.26 3.83-.99 1.11-1.75 2.41-2.28 3.84l.76-.86c.73-.83 1.99-.91 2.82-.18.83.73.91 1.99.18 2.82l-5.03 5.73c-.11.13-.23.25-.37.35 0 0-.01 0-.02.01-.1.07-.21.14-.33.19-.03.01-.06.02-.09.04-.09.04-.18.07-.28.09l-.16.03c-.05 0-.1.02-.16.03h-.33c-.12-.01-.23-.03-.34-.06-.03 0-.05-.01-.08-.02-.14-.04-.27-.1-.4-.17-.01 0-.03-.02-.04-.03-.1-.06-.2-.14-.29-.22-.05-.04-.09-.09-.13-.14-.05-.05-.1-.11-.14-.17-.02-.03-.05-.05-.06-.08l-4.34-6.54a1.998 1.998 0 113.33-2.21l1.19 1.8c.65-2.6 1.86-4.96 3.61-6.91 2.85-3.18 6.79-5.01 11.1-5.16 8.72-.29 16.02 6.53 16.32 15.22.15 4.21-1.35 8.23-4.23 11.31z" fill="#1484f4"/></svg>